<svg xmlns="http://www.w3.org/2000/svg" width="20" height="16" viewBox="0 0 20 16" fill="none">
  <path d="M12.89 6.48L9.89 4.74C9.62347 4.58253 9.31957 4.49946 9.01 4.49946C8.70043 4.49946 8.39653 4.58253 8.13 4.74C7.86143 4.8914 7.63879 5.11259 7.48564 5.38017C7.33248 5.64774 7.25452 5.95174 7.26 6.26V9.74C7.25452 10.0483 7.33248 10.3523 7.48564 10.6198C7.63879 10.8874 7.86143 11.1086 8.13 11.26C8.39653 11.4175 8.70043 11.5005 9.01 11.5005C9.31957 11.5005 9.62347 11.4175 9.89 11.26L12.89 9.52C13.1465 9.36259 13.3583 9.14204 13.5052 8.87943C13.6522 8.61683 13.7293 8.32093 13.7293 8.02C13.7293 7.71907 13.6522 7.42317 13.5052 7.16057C13.3583 6.89796 13.1465 6.67741 12.89 6.52V6.48ZM9.24 9.32V6.68L11.52 8L9.24 9.32ZM17 0H3C2.20435 0 1.44129 0.316071 0.87868 0.87868C0.316071 1.44129 0 2.20435 0 3V13C0 13.7956 0.316071 14.5587 0.87868 15.1213C1.44129 15.6839 2.20435 16 3 16H17C17.7956 16 18.5587 15.6839 19.1213 15.1213C19.6839 14.5587 20 13.7956 20 13V3C20 2.20435 19.6839 1.44129 19.1213 0.87868C18.5587 0.316071 17.7956 0 17 0ZM18 13C18 13.2652 17.8946 13.5196 17.7071 13.7071C17.5196 13.8946 17.2652 14 17 14H3C2.73478 14 2.48043 13.8946 2.29289 13.7071C2.10536 13.5196 2 13.2652 2 13V3C2 2.73478 2.10536 2.48043 2.29289 2.29289C2.48043 2.10536 2.73478 2 3 2H17C17.2652 2 17.5196 2.10536 17.7071 2.29289C17.8946 2.48043 18 2.73478 18 3V13Z" fill="black"/>
</svg>